<?xml version="1.0" encoding="UTF-8"?>
<!DOCTYPE svg PUBLIC "-//W3C//DTD SVG 1.1//EN" "http://www.w3.org/Graphics/SVG/1.1/DTD/svg11.dtd">
<!-- Creator: CorelDRAW 2020 (64-Bit) -->
<svg xmlns="http://www.w3.org/2000/svg" xml:space="preserve" width="1080mm" height="2412mm" version="1.1" style="shape-rendering:geometricPrecision; text-rendering:geometricPrecision; image-rendering:optimizeQuality; fill-rule:evenodd; clip-rule:evenodd"
viewBox="0 0 108000 241200"
 xmlns:xlink="http://www.w3.org/1999/xlink"
 xmlns:xodm="http://www.corel.com/coreldraw/odm/2003">
 <defs>
  <style type="text/css">
   <![CDATA[
    .str0 {stroke:#2B2A29;stroke-width:150;stroke-miterlimit:22.9256}
    .fil0 {fill:#699FEF}
   ]]>
  </style>
 </defs>
 <g id="Слой_x0020_1">
  <metadata id="CorelCorpID_0Corel-Layer"/>
  <g id="_2526045882208">
   <path class="fil0 str0" d="M49268.46 114488.01l47.51 2.58 1831.05 -1.24c143.08,331.48 387.66,623.26 843.27,658.6 461.17,35.77 2415.61,4.61 3041.46,4.61 614.92,0 926.55,65.08 1387.59,-132.7 0,-48.54 -9.95,-34.11 43.63,-26.16l39.04 -40.31c-1.61,-40.21 -8.45,-27.6 35.89,-17.34l35.19 -16.93c-9.8,-42.83 -14.84,-29.86 31.59,-21.78l23.34 -28.29c-10.24,-44.64 -22.94,-37.88 17.65,-35.83 -5.38,-44.57 -16.66,-38.16 25.23,-28.38 -1.98,-36.77 -10.13,-27.46 27.8,-24.41l18.97 -33.41 34.43 -44.12 34.58 -45.37c-11.21,-53.1 -26.27,-44.31 20.86,-44.31l48.5 -120.36 1826.63 -1.81 45.31 0.99c37.04,49.99 8.79,-26.33 22.71,54.58l1.34 12534.86c0,155.43 43.18,726.46 -26.87,806.65 -20.62,69.11 -11.08,53 -254.06,48.77 -1415.34,-24.61 -3048.64,-0.31 -4471.1,-0.31l-4444.53 -0.55c-272.71,0.06 -236.46,28.62 -278.43,-47.19 -78.93,-24.94 -41.63,-269.58 -41.58,-357.63l0.66 -12222.22c0,-106.42 -35.47,-738.72 32.34,-820.99zm3806.34 -1544.36l-16.14 234.35c-149.26,41.63 -826.92,16.02 -1034.62,18.44 -403.7,-3.16 -570.11,259.67 -684.12,298.78 -80.78,27.71 -1714.86,11.6 -1943.09,11.61 -234.65,0.01 -736.56,-54.32 -873.15,88.64l-185.74 181.63c-89.08,304.94 -44.32,3248.62 -44.32,3807.03l-0.55 10688.64c-0.2,481.8 148.78,454.49 363.64,607.65l10684.91 0c397.91,-263.08 365.18,-214.48 365.17,-925.93l0.01 -13015.86c0.12,-332.44 63.73,-998.92 -90.3,-1225.51 -192,-282.44 -664.97,-206.5 -1092.69,-206.5 -199.92,0 -1785.39,35.76 -1899.81,-28.6 -148.5,-83.53 -172.71,-166.48 -409.94,-247 -345.09,-117.13 -915.79,14.14 -1268.99,-57.67 -25.73,-305.51 -46.23,-425.32 -219.45,-573.8 -268.79,-230.39 -403.06,-191.05 -527.82,-279.97l-358.19 0c-164.72,89.81 -291.53,79.08 -476.04,210.09 -117.41,83.36 -262.05,211.26 -288.77,413.98z"/>
   <path class="fil0 str0" d="M54788.04 124244.86l-1251.82 1365.33c-161.33,-228.79 -345.45,-366.3 -638.12,-813.12 -88.67,-135.37 -167.16,-317.12 -248.16,-466.66 -99.45,-183.59 -272.03,-238.74 -485.91,-102.51l-93.7 78.16c-172.36,123.11 -61.24,32.81 -154.42,162.12l-79.72 65.77c-121.82,167.05 -148.63,270.05 -142.71,509.59 30.34,32.36 -2.79,-15.41 38.31,46.38 15.24,22.92 16.29,28.07 29.21,52.67 49.33,93.94 26.17,40.49 46.2,117.91 31.33,105.56 93.56,205.79 159.39,298.75 25.22,24.92 19.53,15.69 43.41,45.96 4.87,6.16 17.81,25.68 22.13,32.06 20.63,30.44 29.88,50.3 41.41,68.93 41.27,115.64 121.04,156.66 170.94,268.71l32.17 24.44c3.86,3.33 10.64,9.08 14.79,12.82 4.06,3.67 9.59,9.55 13.67,13.42l111.08 132.27c120.91,181.36 345.2,391.99 504.09,548.61 217.61,214.51 285.8,352.27 668.46,122.09 140.6,-84.57 911.89,-941.64 996.36,-1081.94 41.34,-78.2 62.37,-87.65 112.96,-162.52 12.46,-18.45 10.11,-20.7 32.8,-46.33 5.08,-5.74 21.75,-20.23 27.25,-25.55l329.33 -351.69c97.5,-71.55 952.16,-1033.05 1216.64,-1194.81 115.36,-148.18 112.89,-114.98 215.58,-212.09l25.48 -25.82c37.96,-33.59 52.18,-40.09 97.67,-65.93 508.7,-270.21 394.71,-1368.8 -422.81,-762.86 -457.66,339.21 -1022.12,943.21 -1431.96,1345.84z"/>
   <polygon class="fil0 str0" points="50192.82,121966.11 57798.08,121967.78 57809.58,121209 50195.89,121205.52 "/>
   <polygon class="fil0 str0" points="50190.91,120289.51 57807.65,120291.55 57809.77,119533.58 50190.06,119530.81 "/>
   <polygon class="fil0 str0" points="50193.75,116936.56 57795.68,116936.49 57810.24,116180.57 50195.26,116178.26 "/>
   <polygon class="fil0 str0" points="50191.78,118607.77 57799.85,118610.16 57809.94,117854.62 50194.43,117852.78 "/>
  </g>
 </g>
</svg>
