<svg width="225" height="218" viewBox="0 0 225 218" fill="none" xmlns="http://www.w3.org/2000/svg">
<path d="M220 109C220 166.29 172.021 213 112.5 213C52.9793 213 5 166.29 5 109C5 51.7102 52.9793 5 112.5 5C172.021 5 220 51.7102 220 109Z" fill="#699FEF" stroke="#007EE3" stroke-width="10"/>
<path d="M196 109C196 153.735 158.616 190 112.5 190C66.3842 190 29 153.735 29 109C29 64.2649 66.3842 28 112.5 28C158.616 28 196 64.2649 196 109Z" fill="#90B9F6"/>
<path d="M197.988 75.9869C195.181 81.5175 182.399 75.2421 170.322 63.012C159.099 51.7892 153.29 39.4026 157.347 35.3457C161.404 31.2888 173.79 37.0978 185.013 48.3206C196.236 59.5433 202.045 71.9299 197.988 75.9869Z" fill="white"/>
</svg>
