<svg width="911" height="180" viewBox="0 0 911 180" fill="none" xmlns="http://www.w3.org/2000/svg">
<path d="M906 130C906 154.853 885.853 175 861 175H50C25.1472 175 5 154.853 5 130V5H906V130Z" fill="#699FEF" stroke="#007EE3" stroke-width="10"/>
<path d="M328.135 117V107.7H334.135C335.385 107.7 336.36 107.5 337.06 107.1C337.81 106.7 338.335 106.025 338.635 105.075L339.985 101.475H335.935L321.61 63.75H333.385L343.285 91.725L352.96 63.75H364.66L348.235 109.575C347.335 112.125 345.985 114 344.185 115.2C342.385 116.4 340.035 117 337.135 117H328.135ZM367.908 128.25V76.8H378.708L378.933 85.275L378.033 84.9C379.033 82 380.658 79.775 382.908 78.225C385.158 76.675 387.783 75.9 390.783 75.9C394.533 75.9 397.658 76.825 400.158 78.675C402.658 80.525 404.533 83.05 405.783 86.25C407.083 89.4 407.733 92.95 407.733 96.9C407.733 100.8 407.083 104.35 405.783 107.55C404.533 110.75 402.633 113.275 400.083 115.125C397.583 116.975 394.458 117.9 390.708 117.9C388.758 117.9 386.933 117.55 385.233 116.85C383.533 116.1 382.058 115.075 380.808 113.775C379.608 112.475 378.733 110.925 378.183 109.125L379.158 108.525V128.25H367.908ZM387.633 109.275C390.283 109.275 392.358 108.175 393.858 105.975C395.408 103.775 396.183 100.75 396.183 96.9C396.183 93.05 395.408 90.025 393.858 87.825C392.358 85.625 390.283 84.525 387.633 84.525C385.883 84.525 384.358 85 383.058 85.95C381.808 86.85 380.833 88.225 380.133 90.075C379.483 91.925 379.158 94.2 379.158 96.9C379.158 99.6 379.483 101.875 380.133 103.725C380.833 105.575 381.808 106.975 383.058 107.925C384.358 108.825 385.883 109.275 387.633 109.275ZM432.935 117.9C428.835 117.9 425.26 117.05 422.21 115.35C419.16 113.6 416.785 111.15 415.085 108C413.385 104.85 412.535 101.15 412.535 96.9C412.535 92.65 413.385 88.975 415.085 85.875C416.785 82.725 419.16 80.275 422.21 78.525C425.26 76.775 428.835 75.9 432.935 75.9C437.035 75.9 440.61 76.775 443.66 78.525C446.71 80.275 449.085 82.725 450.785 85.875C452.485 88.975 453.335 92.65 453.335 96.9C453.335 101.15 452.485 104.85 450.785 108C449.085 111.15 446.71 113.6 443.66 115.35C440.61 117.05 437.035 117.9 432.935 117.9ZM432.935 109.275C435.735 109.275 437.91 108.2 439.46 106.05C441.01 103.85 441.785 100.8 441.785 96.9C441.785 93 441.01 89.975 439.46 87.825C437.91 85.625 435.735 84.525 432.935 84.525C430.135 84.525 427.96 85.625 426.41 87.825C424.86 89.975 424.085 93 424.085 96.9C424.085 100.8 424.86 103.85 426.41 106.05C427.96 108.2 430.135 109.275 432.935 109.275ZM460.34 117V76.8H478.64C484.29 76.8 488.59 77.75 491.54 79.65C494.49 81.5 495.965 84.275 495.965 87.975C495.965 90.375 495.115 92.325 493.415 93.825C491.765 95.275 489.415 96.075 486.365 96.225C490.015 96.375 492.79 97.275 494.69 98.925C496.64 100.525 497.615 102.75 497.615 105.6C497.615 109.25 496.19 112.075 493.34 114.075C490.49 116.025 486.315 117 480.815 117H460.34ZM471.665 108.9H480.14C482.04 108.9 483.515 108.525 484.565 107.775C485.615 107.025 486.14 105.975 486.14 104.625C486.14 103.175 485.615 102.05 484.565 101.25C483.515 100.4 482.04 99.975 480.14 99.975H471.665V108.9ZM471.665 93.225H478.415C480.315 93.225 481.79 92.85 482.84 92.1C483.94 91.35 484.49 90.325 484.49 89.025C484.49 87.725 483.94 86.725 482.84 86.025C481.79 85.275 480.315 84.9 478.415 84.9H471.665V93.225ZM506.043 117V76.725H517.293V117H506.043ZM530.043 117V76.8H541.293V117H530.043ZM508.668 101.175V92.775H537.618V101.175H508.668ZM551.087 117V76.8H562.337V100.575L575.387 76.8H585.887V117H574.637V93.9L561.887 117H551.087Z" fill="white"/>
</svg>
