<svg width="1080" height="155" viewBox="0 0 1080 155" fill="none" xmlns="http://www.w3.org/2000/svg">
<path d="M5 5H1075V150H5V5Z" fill="#699FEF" stroke="#007EE3" stroke-width="10"/>
<path d="M245.893 104L265.093 50.75H278.593L297.793 104H285.943L282.043 92.675H261.568L257.668 104H245.893ZM264.793 83.3H278.893L271.843 62.75L264.793 83.3ZM321.757 105.2C317.457 105.2 313.657 104.5 310.357 103.1C307.057 101.7 304.432 99.75 302.482 97.25C300.582 94.7 299.557 91.75 299.407 88.4L311.032 87.95C311.232 90.25 312.307 92.1 314.257 93.5C316.207 94.9 318.732 95.6 321.832 95.6C325.132 95.6 327.707 94.875 329.557 93.425C331.457 91.975 332.407 90.025 332.407 87.575C332.407 85.775 331.932 84.3 330.982 83.15C330.032 82 328.807 81.15 327.307 80.6C325.807 80 324.207 79.725 322.507 79.775L317.107 79.85V71.9L322.507 71.975C323.907 71.975 325.207 71.75 326.407 71.3C327.657 70.8 328.657 70.05 329.407 69.05C330.207 68 330.607 66.65 330.607 65C330.607 63.15 329.782 61.725 328.132 60.725C326.532 59.675 324.332 59.15 321.532 59.15C318.832 59.15 316.632 59.65 314.932 60.65C313.282 61.6 312.357 62.9 312.157 64.55L300.607 64.025C300.957 61.125 302.057 58.6 303.907 56.45C305.807 54.25 308.282 52.55 311.332 51.35C314.382 50.15 317.857 49.55 321.757 49.55C325.907 49.55 329.507 50.125 332.557 51.275C335.657 52.425 338.057 54.05 339.757 56.15C341.507 58.2 342.382 60.625 342.382 63.425C342.382 65.875 341.732 67.975 340.432 69.725C339.182 71.475 337.332 72.875 334.882 73.925C332.482 74.925 329.557 75.55 326.107 75.8L326.257 74.675C330.057 74.925 333.282 75.675 335.932 76.925C338.632 78.125 340.682 79.8 342.082 81.95C343.482 84.05 344.182 86.525 344.182 89.375C344.182 92.525 343.232 95.3 341.332 97.7C339.482 100.05 336.882 101.9 333.532 103.25C330.182 104.55 326.257 105.2 321.757 105.2ZM352.557 104V50.75H363.957V70.175H373.857C380.257 70.175 385.257 71.675 388.857 74.675C392.507 77.675 394.332 81.825 394.332 87.125C394.332 92.325 392.507 96.45 388.857 99.5C385.257 102.5 380.257 104 373.857 104H352.557ZM363.957 94.4H373.182C376.282 94.4 378.632 93.8 380.232 92.6C381.832 91.35 382.632 89.525 382.632 87.125C382.632 84.675 381.832 82.825 380.232 81.575C378.632 80.325 376.282 79.7 373.182 79.7H363.957V94.4ZM354.207 60.35V50.75H391.932V60.35H354.207ZM406.08 104V94.7H412.08C413.33 94.7 414.305 94.5 415.005 94.1C415.755 93.7 416.28 93.025 416.58 92.075L417.93 88.475H413.88L399.555 50.75H411.33L421.23 78.725L430.905 50.75H442.605L426.18 96.575C425.28 99.125 423.93 101 422.13 102.2C420.33 103.4 417.98 104 415.08 104H406.08ZM479.427 104L458.427 77.375H471.402L492.627 104H479.427ZM447.552 104V50.75H458.952V104H447.552ZM458.427 77.375L478.827 50.75H491.877L471.402 77.375H458.427ZM494.916 104L514.116 50.75H527.616L546.816 104H534.966L531.066 92.675H510.591L506.691 104H494.916ZM513.816 83.3H527.916L520.866 62.75L513.816 83.3ZM569.092 115.25V94.4H571.417C573.417 94.4 574.992 93.575 576.142 91.925C577.342 90.225 578.142 87.75 578.542 84.5L582.442 50.75H619.192V94.4H625.792V115.25H614.392V104H580.567V115.25H569.092ZM587.092 94.4H607.792V60.35H592.942L590.092 85.25C589.842 87.25 589.467 89 588.967 90.5C588.517 92 587.892 93.3 587.092 94.4ZM655.526 105.2C650.126 105.2 645.476 104.075 641.576 101.825C637.726 99.575 634.751 96.375 632.651 92.225C630.601 88.075 629.576 83.15 629.576 77.45C629.576 71.75 630.601 66.825 632.651 62.675C634.751 58.475 637.726 55.25 641.576 53C645.476 50.7 650.126 49.55 655.526 49.55C660.926 49.55 665.551 50.7 669.401 53C673.301 55.25 676.276 58.475 678.326 62.675C680.426 66.825 681.476 71.75 681.476 77.45C681.476 83.15 680.426 88.075 678.326 92.225C676.276 96.375 673.301 99.575 669.401 101.825C665.551 104.075 660.926 105.2 655.526 105.2ZM655.451 95.6C658.451 95.6 661.001 94.9 663.101 93.5C665.251 92.05 666.876 89.975 667.976 87.275C669.126 84.575 669.701 81.3 669.701 77.45C669.701 73.6 669.126 70.325 667.976 67.625C666.876 64.875 665.251 62.775 663.101 61.325C661.001 59.875 658.451 59.15 655.451 59.15C652.501 59.15 649.976 59.875 647.876 61.325C645.776 62.775 644.151 64.875 643.001 67.625C641.901 70.325 641.351 73.6 641.351 77.45C641.351 81.3 641.901 84.575 643.001 87.275C644.151 89.975 645.776 92.05 647.876 93.5C650.026 94.9 652.551 95.6 655.451 95.6ZM689.031 104V50.75H710.331C716.731 50.75 721.731 52.3 725.331 55.4C728.981 58.5 730.806 62.75 730.806 68.15C730.806 71.7 729.981 74.8 728.331 77.45C726.731 80.05 724.381 82.075 721.281 83.525C718.231 84.925 714.581 85.625 710.331 85.625H700.431V104H689.031ZM700.431 76.025H709.656C712.656 76.025 714.981 75.375 716.631 74.075C718.281 72.725 719.106 70.75 719.106 68.15C719.106 65.6 718.281 63.675 716.631 62.375C715.031 61.025 712.706 60.35 709.656 60.35H700.431V76.025ZM761.8 105.2C756.4 105.2 751.75 104.075 747.85 101.825C744 99.575 741.025 96.375 738.925 92.225C736.875 88.075 735.85 83.15 735.85 77.45C735.85 71.75 736.875 66.825 738.925 62.675C741.025 58.475 744 55.25 747.85 53C751.75 50.7 756.4 49.55 761.8 49.55C767.2 49.55 771.825 50.7 775.675 53C779.575 55.25 782.55 58.475 784.6 62.675C786.7 66.825 787.75 71.75 787.75 77.45C787.75 83.15 786.7 88.075 784.6 92.225C782.55 96.375 779.575 99.575 775.675 101.825C771.825 104.075 767.2 105.2 761.8 105.2ZM761.725 95.6C764.725 95.6 767.275 94.9 769.375 93.5C771.525 92.05 773.15 89.975 774.25 87.275C775.4 84.575 775.975 81.3 775.975 77.45C775.975 73.6 775.4 70.325 774.25 67.625C773.15 64.875 771.525 62.775 769.375 61.325C767.275 59.875 764.725 59.15 761.725 59.15C758.775 59.15 756.25 59.875 754.15 61.325C752.05 62.775 750.425 64.875 749.275 67.625C748.175 70.325 747.625 73.6 747.625 77.45C747.625 81.3 748.175 84.575 749.275 87.275C750.425 89.975 752.05 92.05 754.15 93.5C756.3 94.9 758.825 95.6 761.725 95.6ZM795.306 104V50.75H834.681V60.35H806.706V104H795.306Z" fill="white"/>
</svg>
