<svg width="911" height="180" viewBox="0 0 911 180" fill="none" xmlns="http://www.w3.org/2000/svg">
<path d="M5 50C5 25.1472 25.1472 5 50 5H861C885.853 5 906 25.1472 906 50V175H5V50Z" fill="#699FEF" stroke="#007EE3" stroke-width="10"/>
<path d="M295.596 117V63.75H338.271V117H326.871V73.35H306.996V117H295.596ZM349.268 128.25V76.8H360.068L360.293 85.275L359.393 84.9C360.393 82 362.018 79.775 364.268 78.225C366.518 76.675 369.143 75.9 372.143 75.9C375.893 75.9 379.018 76.825 381.518 78.675C384.018 80.525 385.893 83.05 387.143 86.25C388.443 89.4 389.093 92.95 389.093 96.9C389.093 100.8 388.443 104.35 387.143 107.55C385.893 110.75 383.993 113.275 381.443 115.125C378.943 116.975 375.818 117.9 372.068 117.9C370.118 117.9 368.293 117.55 366.593 116.85C364.893 116.1 363.418 115.075 362.168 113.775C360.968 112.475 360.093 110.925 359.543 109.125L360.518 108.525V128.25H349.268ZM368.993 109.275C371.643 109.275 373.718 108.175 375.218 105.975C376.768 103.775 377.543 100.75 377.543 96.9C377.543 93.05 376.768 90.025 375.218 87.825C373.718 85.625 371.643 84.525 368.993 84.525C367.243 84.525 365.718 85 364.418 85.95C363.168 86.85 362.193 88.225 361.493 90.075C360.843 91.925 360.518 94.2 360.518 96.9C360.518 99.6 360.843 101.875 361.493 103.725C362.193 105.575 363.168 106.975 364.418 107.925C365.718 108.825 367.243 109.275 368.993 109.275ZM408.361 117.9C404.211 117.9 400.811 116.95 398.161 115.05C395.561 113.1 394.261 110.4 394.261 106.95C394.261 103.4 395.361 100.675 397.561 98.775C399.811 96.825 403.111 95.4 407.461 94.5L420.436 91.95C420.436 89.35 419.836 87.4 418.636 86.1C417.486 84.75 415.811 84.075 413.611 84.075C411.461 84.075 409.786 84.575 408.586 85.575C407.386 86.525 406.611 87.95 406.261 89.85L394.936 89.325C395.686 84.925 397.661 81.6 400.861 79.35C404.111 77.05 408.361 75.9 413.611 75.9C419.611 75.9 424.111 77.325 427.111 80.175C430.161 83.025 431.686 87.2 431.686 92.7V106.425C431.686 107.575 431.861 108.35 432.211 108.75C432.611 109.1 433.186 109.275 433.936 109.275H435.061V117C434.711 117.1 434.136 117.2 433.336 117.3C432.586 117.4 431.836 117.45 431.086 117.45C429.486 117.45 427.986 117.175 426.586 116.625C425.236 116.075 424.136 115.15 423.286 113.85C422.436 112.5 422.011 110.6 422.011 108.15L422.986 108.9C422.486 110.7 421.586 112.275 420.286 113.625C419.036 114.975 417.386 116.025 415.336 116.775C413.336 117.525 411.011 117.9 408.361 117.9ZM411.061 110.175C412.911 110.175 414.536 109.825 415.936 109.125C417.336 108.375 418.436 107.3 419.236 105.9C420.036 104.5 420.436 102.85 420.436 100.95V99L411.286 100.95C409.486 101.3 408.111 101.9 407.161 102.75C406.261 103.55 405.811 104.6 405.811 105.9C405.811 107.25 406.261 108.3 407.161 109.05C408.061 109.8 409.361 110.175 411.061 110.175ZM440.968 117V76.8H459.268C464.918 76.8 469.218 77.75 472.168 79.65C475.118 81.5 476.593 84.275 476.593 87.975C476.593 90.375 475.743 92.325 474.043 93.825C472.393 95.275 470.043 96.075 466.993 96.225C470.643 96.375 473.418 97.275 475.318 98.925C477.268 100.525 478.243 102.75 478.243 105.6C478.243 109.25 476.818 112.075 473.968 114.075C471.118 116.025 466.943 117 461.443 117H440.968ZM452.293 108.9H460.768C462.668 108.9 464.143 108.525 465.193 107.775C466.243 107.025 466.768 105.975 466.768 104.625C466.768 103.175 466.243 102.05 465.193 101.25C464.143 100.4 462.668 99.975 460.768 99.975H452.293V108.9ZM452.293 93.225H459.043C460.943 93.225 462.418 92.85 463.468 92.1C464.568 91.35 465.118 90.325 465.118 89.025C465.118 87.725 464.568 86.725 463.468 86.025C462.418 85.275 460.943 84.9 459.043 84.9H452.293V93.225ZM486.671 117V76.8H497.921V100.575L510.971 76.8H521.471V117H510.221V93.9L497.471 117H486.671ZM528.823 117V108.15H531.148C532.448 108.15 533.448 107.7 534.148 106.8C534.848 105.85 535.298 104.5 535.498 102.75L538.348 76.8H571.498V117H560.248V85.2H548.548L546.373 105.825C546.023 109.475 544.973 112.25 543.223 114.15C541.473 116.05 539.048 117 535.948 117H528.823ZM593.298 117.9C589.148 117.9 585.748 116.95 583.098 115.05C580.498 113.1 579.198 110.4 579.198 106.95C579.198 103.4 580.298 100.675 582.498 98.775C584.748 96.825 588.048 95.4 592.398 94.5L605.373 91.95C605.373 89.35 604.773 87.4 603.573 86.1C602.423 84.75 600.748 84.075 598.548 84.075C596.398 84.075 594.723 84.575 593.523 85.575C592.323 86.525 591.548 87.95 591.198 89.85L579.873 89.325C580.623 84.925 582.598 81.6 585.798 79.35C589.048 77.05 593.298 75.9 598.548 75.9C604.548 75.9 609.048 77.325 612.048 80.175C615.098 83.025 616.623 87.2 616.623 92.7V106.425C616.623 107.575 616.798 108.35 617.148 108.75C617.548 109.1 618.123 109.275 618.873 109.275H619.998V117C619.648 117.1 619.073 117.2 618.273 117.3C617.523 117.4 616.773 117.45 616.023 117.45C614.423 117.45 612.923 117.175 611.523 116.625C610.173 116.075 609.073 115.15 608.223 113.85C607.373 112.5 606.948 110.6 606.948 108.15L607.923 108.9C607.423 110.7 606.523 112.275 605.223 113.625C603.973 114.975 602.323 116.025 600.273 116.775C598.273 117.525 595.948 117.9 593.298 117.9ZM595.998 110.175C597.848 110.175 599.473 109.825 600.873 109.125C602.273 108.375 603.373 107.3 604.173 105.9C604.973 104.5 605.373 102.85 605.373 100.95V99L596.223 100.95C594.423 101.3 593.048 101.9 592.098 102.75C591.198 103.55 590.748 104.6 590.748 105.9C590.748 107.25 591.198 108.3 592.098 109.05C592.998 109.8 594.298 110.175 595.998 110.175Z" fill="white"/>
</svg>
